<svg width="129" height="44" viewBox="0 0 129 44" fill="none" xmlns="http://www.w3.org/2000/svg">
<rect x="0.5" y="7.5" width="128" height="36" rx="8.94373" fill="black" stroke="#626262"/>
<path d="M37.52 30V22.8191H34.183V20.1439H44.0251V22.8191H40.6881V30H37.52ZM44.0783 30V23.2415H46.8803V26.4377L50.4848 23.2415H52.9207V30H50.1328V26.8038L46.5283 30H44.0783ZM57.3983 30.2112C55.9903 30.2112 55.0328 30.0563 53.8642 29.6621V27.6768C54.9061 28.071 55.8072 28.24 56.8914 28.24C58.2009 28.24 58.5951 28.1133 58.5951 27.7753C58.5951 27.4937 58.3417 27.3811 57.6376 27.3811H55.0891V25.79H57.5532C58.229 25.79 58.4543 25.6915 58.4543 25.4239C58.4543 25.1564 58.1868 24.9875 56.9477 24.9875C55.9339 24.9875 55.061 25.1283 54.019 25.4662V23.5231C55.2159 23.1993 56.2015 23.0303 57.4828 23.0303C60.3974 23.0303 61.4252 23.9455 61.4252 25.0297C61.4252 25.79 61.0028 26.2969 60.2988 26.5222C61.1154 26.7756 61.566 27.3529 61.566 28.0992C61.566 29.5776 60.0876 30.2112 57.3983 30.2112ZM67.3056 30.2112C64.1234 30.2112 62.2367 29.0144 62.2367 26.6067C62.2367 24.0722 64.2502 23.0303 66.5593 23.0303C69.9385 23.0303 71.0931 24.9311 70.6426 27.3248H65.2217C65.5174 27.9725 66.2918 28.2118 67.6716 28.2118C68.6995 28.2118 69.5443 28.1133 70.3328 27.9021V29.831C69.4457 30.0986 68.432 30.2112 67.3056 30.2112ZM65.1231 25.9731H68.0659C68.08 25.3676 67.6435 24.9875 66.7142 24.9875C65.7004 24.9875 65.2639 25.3535 65.1231 25.9731ZM77.2654 30.2112C76.2235 30.2112 75.2942 29.9578 74.5339 29.4509V33.0976H71.6474V23.2415H74.1959L74.2241 24.0863C75.0407 23.3823 76.0827 23.0303 77.2654 23.0303C79.7576 23.0303 81.0248 24.4947 81.0248 26.6208C81.0248 28.7469 79.7717 30.2112 77.2654 30.2112ZM74.5339 27.3107C74.9703 27.6909 75.6039 28.0006 76.3643 28.0006C77.4766 28.0006 78.0398 27.5078 78.0398 26.6208C78.0398 25.7196 77.4766 25.2409 76.3643 25.2409C75.6039 25.2409 74.9844 25.5366 74.5339 25.9308V27.3107Z" fill="#626262"/>
<circle cx="94" cy="26" r="7" fill="#626262"/>
<path d="M96.4976 25.3044L93.0174 23.5643C92.3969 23.254 91.6667 23.7053 91.6667 24.3991V27.601C91.6667 28.2948 92.3969 28.7461 93.0174 28.4358L96.4976 26.6957C97.0708 26.4091 97.0708 25.591 96.4976 25.3044Z" fill="black"/>
<rect x="85" width="44" height="13.6" rx="6.8" fill="white"/>
<path d="M95.3663 9.32553C93.5006 9.32553 92.4063 8.50032 92.4063 7.04725C92.4063 5.59417 93.5006 4.76897 95.3932 4.76897C96.03 4.76897 96.6579 4.85867 97.214 5.02909V6.48216C96.8104 6.32968 96.2812 6.23999 95.6892 6.23999C94.7115 6.23999 94.3258 6.52701 94.3258 7.04725C94.3258 7.56749 94.6936 7.85451 95.6712 7.85451C96.2991 7.85451 96.8373 7.75585 97.2589 7.61233V9.06541C96.6669 9.23583 96.0211 9.32553 95.3663 9.32553ZM101.517 9.19995L100.531 7.70203H99.7145V9.19995H97.8757V4.89455H99.7145V6.32071H100.531L101.446 4.89455H103.553L102.091 7.0024L103.652 9.19995H101.517ZM106.306 9.3345C104.494 9.3345 103.391 8.50032 103.391 7.04725C103.391 5.59417 104.494 4.76 106.306 4.76C108.127 4.76 109.23 5.59417 109.23 7.04725C109.23 8.50032 108.127 9.3345 106.306 9.3345ZM105.247 7.04725C105.247 7.60336 105.615 7.89039 106.306 7.89039C107.005 7.89039 107.364 7.60336 107.364 7.04725C107.364 6.49113 107.005 6.20411 106.306 6.20411C105.615 6.20411 105.247 6.49113 105.247 7.04725ZM113.376 9.3345C112.712 9.3345 112.12 9.17304 111.636 8.85014V11.1733H109.797V4.89455H111.421L111.439 5.43272C111.959 4.98424 112.623 4.76 113.376 4.76C114.964 4.76 115.771 5.69284 115.771 7.04725C115.771 8.40166 114.973 9.3345 113.376 9.3345ZM111.636 7.48676C111.914 7.72894 112.318 7.92627 112.802 7.92627C113.511 7.92627 113.869 7.61233 113.869 7.04725C113.869 6.47319 113.511 6.16823 112.802 6.16823C112.318 6.16823 111.923 6.35659 111.636 6.60774V7.48676ZM119.112 9.3345C117.3 9.3345 116.197 8.50032 116.197 7.04725C116.197 5.59417 117.3 4.76 119.112 4.76C120.933 4.76 122.036 5.59417 122.036 7.04725C122.036 8.50032 120.933 9.3345 119.112 9.3345ZM118.053 7.04725C118.053 7.60336 118.421 7.89039 119.112 7.89039C119.812 7.89039 120.17 7.60336 120.17 7.04725C120.17 6.49113 119.812 6.20411 119.112 6.20411C118.421 6.20411 118.053 6.49113 118.053 7.04725Z" fill="black"/>
</svg>
