<svg width="50" height="52" viewBox="0 0 50 52" fill="none" xmlns="http://www.w3.org/2000/svg">
<g id="&#208;&#186;&#208;&#176;&#209;&#128;&#209;&#130;&#208;&#184;&#208;&#189;&#208;&#186;&#208;&#176; &#208;&#154;">
<g id="Union">
<mask id="path-1-outside-1_2998_3425" maskUnits="userSpaceOnUse" x="1.74316" y="0" width="48" height="52" fill="black">
<rect fill="white" x="1.74316" width="48" height="52"/>
<path d="M31.6272 47C30.3947 47 29.2362 46.4124 28.508 45.418L23.0338 37.9422C20.2353 34.1205 20.9932 28.7646 24.7422 25.8694L35.8825 17.2662C36.5593 16.7435 37.3903 16.46 38.2454 16.46H41.4211C45.0447 16.46 46.6771 20.9973 43.8841 23.3058L35.7833 30.0017C34.2532 31.2664 33.9296 33.4845 35.0347 35.1336L38.9537 40.9819C40.6749 43.5505 38.834 47 35.7421 47H31.6272ZM10.611 47C8.09808 47 6.25302 44.6402 6.85922 42.2014L15.3773 7.93339C15.8057 6.20992 17.3532 5 19.1291 5H22.5618C25.0748 5 26.9198 7.35984 26.3136 9.79857L17.7956 44.0666C17.3672 45.7901 15.8197 47 14.0438 47H10.611Z"/>
</mask>
<path d="M23.0338 37.9422L26.3499 35.5139L23.0338 37.9422ZM24.7422 25.8694L27.2544 29.1224L24.7422 25.8694ZM15.3773 7.93339L11.3885 6.94189L15.3773 7.93339ZM35.7833 30.0017L33.1647 26.8336L35.7833 30.0017ZM35.0347 35.1336L31.6203 37.4216L35.0347 35.1336ZM35.8825 17.2662L33.3703 14.0131L35.8825 17.2662ZM28.508 45.418L25.1919 47.8463L28.508 45.418ZM31.8242 42.9898L26.3499 35.5139L19.7176 40.3705L25.1919 47.8463L31.8242 42.9898ZM27.2544 29.1224L38.3947 20.5192L33.3703 14.0131L22.23 22.6163L27.2544 29.1224ZM38.2454 20.5702H41.4211V12.3498H38.2454V20.5702ZM41.2656 20.1378L33.1647 26.8336L38.4019 33.1697L46.5027 26.4739L41.2656 20.1378ZM31.6203 37.4216L35.5393 43.2699L42.3681 38.6939L38.4491 32.8456L31.6203 37.4216ZM35.7421 42.8898H31.6272V51.1102H35.7421V42.8898ZM10.848 43.1929L19.3661 8.92488L11.3885 6.94189L2.87044 41.2099L10.848 43.1929ZM19.1291 9.11016H22.5618V0.889839H19.1291V9.11016ZM22.3249 8.80707L13.8068 43.0751L21.7844 45.0581L30.3024 10.7901L22.3249 8.80707ZM14.0438 42.8898H10.611V51.1102H14.0438V42.8898ZM26.3499 35.5139C24.8684 33.4907 25.2696 30.6552 27.2544 29.1224L22.23 22.6163C16.7167 26.874 15.6022 34.7503 19.7176 40.3705L26.3499 35.5139ZM13.8068 43.0751C13.8339 42.9663 13.9316 42.8898 14.0438 42.8898V51.1102C17.7078 51.1102 20.9005 48.6139 21.7844 45.0581L13.8068 43.0751ZM22.5618 9.11016C22.5377 9.11016 22.4943 9.10261 22.4502 9.08052C22.4117 9.06117 22.3862 9.03772 22.3695 9.01638C22.3528 8.99505 22.3362 8.96462 22.3267 8.92253C22.3159 8.87447 22.319 8.83047 22.3249 8.80707L30.3024 10.7901C31.5531 5.75856 27.7465 0.889839 22.5618 0.889839V9.11016ZM19.3661 8.92488C19.339 9.03374 19.2413 9.11016 19.1291 9.11016V0.889839C15.4651 0.889839 12.2724 3.38611 11.3885 6.94189L19.3661 8.92488ZM2.87044 41.2099C1.61975 46.2414 5.42641 51.1102 10.611 51.1102V42.8898C10.6351 42.8898 10.6786 42.8974 10.7226 42.9195C10.7612 42.9388 10.7867 42.9623 10.8034 42.9836C10.8201 43.005 10.8367 43.0354 10.8462 43.0775C10.857 43.1255 10.8538 43.1695 10.848 43.1929L2.87044 41.2099ZM35.5393 43.2699C35.5401 43.2712 35.5301 43.256 35.5204 43.2254C35.5109 43.1957 35.5056 43.1637 35.5046 43.1328C35.5028 43.0738 35.5169 43.0375 35.5267 43.0191C35.5365 43.0006 35.5588 42.9688 35.6089 42.9374C35.635 42.921 35.6647 42.9076 35.6946 42.899C35.7255 42.89 35.7437 42.8898 35.7421 42.8898V51.1102C42.1212 51.1102 45.9192 43.9932 42.3681 38.6939L35.5393 43.2699ZM33.1647 26.8336C30.0078 29.443 29.3403 34.0192 31.6203 37.4216L38.4491 32.8456C38.5189 32.9497 38.4985 33.0898 38.4019 33.1697L33.1647 26.8336ZM41.4211 20.5702C41.4407 20.5702 41.4234 20.5725 41.3829 20.559C41.3436 20.5459 41.3043 20.5252 41.2708 20.5002C41.2082 20.4535 41.1936 20.4149 41.1914 20.4086C41.1891 20.4024 41.1757 20.3633 41.1943 20.2874C41.2042 20.2469 41.2213 20.2059 41.2432 20.1708C41.2659 20.1345 41.2807 20.1253 41.2656 20.1378L46.5027 26.4739C52.2651 21.7109 48.8971 12.3498 41.4211 12.3498V20.5702ZM38.3947 20.5192C38.3519 20.5523 38.2994 20.5702 38.2454 20.5702V12.3498C36.4812 12.3498 34.7667 12.9348 33.3703 14.0131L38.3947 20.5192ZM25.1919 47.8463C26.6941 49.8978 29.0845 51.1102 31.6272 51.1102V42.8898C31.705 42.8898 31.7782 42.927 31.8242 42.9898L25.1919 47.8463Z" fill="white" mask="url(#path-1-outside-1_2998_3425)"/>
</g>
<path id="Vector 38" d="M18.5021 18.9055L16.9942 22.6839L16.9942 22.684L16.99 22.6946L16.99 22.6946C16.8735 22.9865 16.8351 23.0726 16.7633 23.149C16.6904 23.2267 16.6239 23.2617 16.388 23.3735C14.7128 24.1676 11.9659 24.6503 9.14462 24.737C6.32399 24.8238 3.48288 24.5132 1.62029 23.7593C1.23221 23.6022 1.12545 23.5511 1.03062 23.4178C0.937234 23.2865 0.921161 23.1411 0.896157 22.6459L0.406812 12.9533C0.385243 12.526 0.370949 12.2318 0.389835 12.0099C0.408088 11.7954 0.454805 11.6891 0.524781 11.6143C0.594757 11.5395 0.697647 11.4858 0.910432 11.4532C1.13059 11.4196 1.42514 11.4142 1.85285 11.4071L15.7533 11.1785C15.8579 11.1768 15.8909 11.1766 15.9205 11.1794C15.9499 11.1821 15.9864 11.1891 16.0992 11.2121C17.0597 11.4074 18.5585 11.6026 20.188 11.6045C21.8149 11.6063 23.5914 11.4156 25.096 10.8258C25.2991 10.7462 25.3667 10.721 25.4162 10.7116C25.4663 10.7021 25.5251 10.7009 25.7104 10.7006L39.0164 10.6802C39.446 10.6796 39.7419 10.6797 39.9635 10.7096C40.1777 10.7385 40.2818 10.7906 40.3531 10.8645L40.5379 10.6861L40.3531 10.8645C40.4244 10.9385 40.4729 11.0443 40.4941 11.2594C40.5161 11.4819 40.5057 11.7776 40.4898 12.2069L40.1403 21.6351C40.1298 21.9198 40.1222 22.1113 40.0993 22.2597C40.0776 22.4005 40.0448 22.4795 39.9966 22.5431C39.9469 22.6087 39.8819 22.6601 39.762 22.7156C39.6341 22.7749 39.4642 22.8301 39.2085 22.9124C37.0449 23.6092 34.2964 24.1033 31.5503 24.1915C28.8011 24.2799 26.0772 23.9608 23.9507 23.0501C23.6713 22.9305 23.5903 22.8917 23.5138 22.8144C23.4381 22.7379 23.3944 22.6438 23.2632 22.3285L21.8401 18.9083C21.6426 18.3502 21.4138 17.911 21.1555 17.6062C20.8957 17.2996 20.5844 17.106 20.2313 17.106C19.8813 17.106 19.5618 17.2967 19.2838 17.5983C19.0049 17.9009 18.7439 18.3394 18.5045 18.8998L18.5044 18.8998L18.5021 18.9055Z" fill="black" stroke="white" stroke-width="0.51377"/>
<path id="Vector 39" d="M3.88967 14.1702L4.23267 20.9642C4.25593 21.4248 4.63659 21.786 5.09775 21.7852L14.8384 21.7663C15.1889 21.7656 15.5043 21.5533 15.6369 21.2289L18.3984 14.4735C18.6307 13.9053 18.2133 13.2828 17.5995 13.2819L4.75439 13.2621C4.2593 13.2613 3.8647 13.6757 3.88967 14.1702Z" fill="#0033FF" stroke="white" stroke-width="0.51377"/>
<path id="Vector 40" d="M36.69 14.0241L36.4155 20.4608C36.3965 20.9067 36.0411 21.2648 35.5954 21.2874L25.7868 21.7826C25.4119 21.8015 25.0676 21.5763 24.9347 21.2252L22.3508 14.3993C22.1378 13.8366 22.5504 13.2338 23.1521 13.2287L35.819 13.1228C36.3138 13.1186 36.7111 13.5298 36.69 14.0241Z" fill="#DA0019" stroke="white" stroke-width="0.51377"/>
<path id="Vector 41" d="M0.4073 11.6788L0.386431 11.6187C0.252592 11.2333 0.41201 10.8022 0.764465 10.5968C9.78554 5.33857 11.4546 9.05118 11.392 10.607" stroke="white" stroke-width="0.51377"/>
<path id="Vector 42" d="M7.3436 11.2933C8.58421 10.1487 10.1734 9.9758 10.6829 10.7796" stroke="white" stroke-width="0.51377"/>
<path id="Vector 43" d="M40.2246 10.7795V10.7795C40.3093 10.4578 40.1489 10.118 39.8482 9.97562C31.2205 5.89069 29.8449 7.77826 29.2324 10.3554" stroke="white" stroke-width="0.51377"/>
<path id="Vector 44" d="M32.9035 10.6515C31.8927 9.49067 30.342 9.78397 30.0778 10.2662" stroke="white" stroke-width="0.51377"/>
</g>
</svg>
