<svg width="53" height="18" viewBox="0 0 53 18" fill="none" xmlns="http://www.w3.org/2000/svg">
<path fill-rule="evenodd" clip-rule="evenodd" d="M1.5071 0.309937C0.979004 0.309937 0.714957 0.309937 0.550899 0.473995C0.386841 0.638053 0.386841 0.902099 0.386841 1.43019V16.6137C0.386841 17.1418 0.386841 17.4058 0.550899 17.5699C0.714957 17.7339 0.979004 17.7339 1.5071 17.7339H6.17903C6.18947 17.7339 6.19989 17.7349 6.21015 17.7369C6.26718 17.7479 6.32578 17.728 6.36432 17.6845L8.07053 15.7605C8.47352 15.3061 8.67501 15.0789 8.93259 15.0832C9.19017 15.0876 9.3839 15.3214 9.77137 15.7892L11.0636 17.349C11.2288 17.5485 11.3114 17.6482 11.4246 17.7014C11.5378 17.7546 11.6673 17.7546 11.9263 17.7546H19.5014C20.579 17.7546 21.1178 17.7546 21.266 17.4231C21.4142 17.0915 21.0548 16.6901 20.3361 15.8872L14.7839 9.68468C14.4671 9.33082 14.3087 9.15389 14.3082 8.94055C14.3077 8.72722 14.4653 8.54955 14.7804 8.19422L20.1195 2.17363C20.8306 1.37176 21.1862 0.970829 21.0376 0.640457C20.889 0.310085 20.3531 0.310085 19.2814 0.310085H11.441C11.1887 0.310085 11.0625 0.310085 10.9515 0.360894C10.8405 0.411702 10.758 0.507175 10.5931 0.69812L9.53359 1.92494C9.14561 2.37418 8.95162 2.59881 8.69827 2.60106C8.44493 2.60331 8.24698 2.38217 7.85107 1.9399L6.42404 0.345736C6.40373 0.32305 6.37473 0.310085 6.34428 0.310085H6.2373C6.23726 0.310085 6.23723 0.310052 6.23723 0.310011C6.23723 0.30997 6.2372 0.309937 6.23715 0.309937H1.5071Z" fill="white"/>
<path d="M25.6493 7.81669C25.3324 7.81669 25.174 7.81669 25.0755 7.71826C24.9771 7.61982 24.9771 7.4614 24.9771 7.14454V1.01834C24.9771 0.701486 24.9771 0.543057 25.0755 0.444622C25.174 0.346187 25.3324 0.346187 25.6493 0.346187H26.3753C26.6922 0.346187 26.8506 0.346187 26.9491 0.444622C27.0475 0.543057 27.0475 0.701486 27.0475 1.01834V7.14454C27.0475 7.4614 27.0475 7.61982 26.9491 7.71826C26.8506 7.81669 26.6922 7.81669 26.3753 7.81669H25.6493Z" fill="white"/>
<path d="M30.9122 7.81669C30.5954 7.81669 30.4369 7.81669 30.3385 7.71826C30.2401 7.61982 30.2401 7.4614 30.2401 7.14454V2.83261C30.2401 2.51575 30.2401 2.35732 30.1416 2.25889C30.0432 2.16045 29.8848 2.16045 29.5679 2.16045H28.6817C28.3649 2.16045 28.2064 2.16045 28.108 2.06202C28.0096 1.96358 28.0096 1.80516 28.0096 1.4883V1.01834C28.0096 0.701485 28.0096 0.543057 28.108 0.444622C28.2064 0.346187 28.3649 0.346187 28.6817 0.346187H33.8794C34.1963 0.346187 34.3547 0.346187 34.4532 0.444622C34.5516 0.543057 34.5516 0.701486 34.5516 1.01834V1.4883C34.5516 1.80516 34.5516 1.96358 34.4532 2.06202C34.3547 2.16045 34.1963 2.16045 33.8794 2.16045H32.9826C32.6657 2.16045 32.5073 2.16045 32.4089 2.25889C32.3104 2.35732 32.3104 2.51575 32.3104 2.83261V7.14454C32.3104 7.4614 32.3104 7.61982 32.212 7.71826C32.1136 7.81669 31.9552 7.81669 31.6383 7.81669H30.9122Z" fill="white"/>
<path d="M36.1326 7.81669C35.8157 7.81669 35.6573 7.81669 35.5588 7.71826C35.4604 7.61982 35.4604 7.4614 35.4604 7.14454V1.01834C35.4604 0.701486 35.4604 0.543057 35.5588 0.444622C35.6573 0.346187 35.8157 0.346187 36.1326 0.346187H37.2729C37.4563 0.346187 37.548 0.346187 37.6244 0.388834C37.7008 0.431481 37.7489 0.509559 37.8451 0.665714L38.8582 2.30975C39.1146 2.72579 39.2428 2.93381 39.4304 2.93381C39.6181 2.93381 39.7463 2.72579 40.0027 2.30975L41.0158 0.665714C41.112 0.509559 41.1601 0.431481 41.2365 0.388834C41.3129 0.346187 41.4046 0.346187 41.588 0.346187H42.7283C43.0452 0.346187 43.2036 0.346187 43.302 0.444622C43.4005 0.543057 43.4005 0.701486 43.4005 1.01834V7.14454C43.4005 7.4614 43.4005 7.61982 43.302 7.71826C43.2036 7.81669 43.0452 7.81669 42.7283 7.81669H42.0129C41.6961 7.81669 41.5376 7.81669 41.4392 7.71826C41.3408 7.61982 41.3408 7.4614 41.3408 7.14454V5.78435C41.3408 4.86466 41.3408 4.40482 41.1006 4.33331C40.8604 4.26181 40.6089 4.64679 40.1059 5.41674L39.4421 6.4328C39.4348 6.44394 39.4224 6.45066 39.4091 6.45066C39.3958 6.45066 39.3834 6.44393 39.3761 6.43277L38.7233 5.4316C38.2203 4.6601 37.9688 4.27436 37.7284 4.34579C37.4881 4.41721 37.4881 4.87771 37.4881 5.79871V7.14454C37.4881 7.4614 37.4881 7.61982 37.3897 7.71826C37.2912 7.81669 37.1328 7.81669 36.816 7.81669H36.1326Z" fill="white"/>
<path d="M48.4928 7.9661C46.1877 7.9661 44.4801 6.23722 44.4801 4.10278V4.08144C44.4801 1.93634 46.209 0.196777 48.5142 0.196777C50.8194 0.196777 52.5269 1.92567 52.5269 4.0601V4.08144C52.5269 6.22654 50.798 7.9661 48.4928 7.9661ZM48.5142 6.09848C49.6454 6.09848 50.4032 5.18067 50.4032 4.10278V4.08144C50.4032 2.99288 49.6348 2.0644 48.4928 2.0644C47.3509 2.0644 46.5932 2.98221 46.5932 4.0601V4.08144C46.5932 5.14866 47.3723 6.09848 48.5142 6.09848Z" fill="white"/>
<path d="M25.241 17.8397C24.8378 17.8397 24.6362 17.8397 24.5353 17.708C24.4344 17.5762 24.487 17.3816 24.5921 16.9924L26.2461 10.8662C26.3107 10.6272 26.3429 10.5077 26.4334 10.4385C26.5238 10.3692 26.6475 10.3692 26.8951 10.3692H27.6304C27.9784 10.3692 28.1525 10.3692 28.2513 10.4701C28.2705 10.4897 28.2873 10.5116 28.3012 10.5353C28.3726 10.6571 28.327 10.825 28.2358 11.1609C28.0142 11.9775 27.9033 12.3859 28.0649 12.5241C28.0946 12.5495 28.1284 12.5695 28.1649 12.5832C28.3638 12.6582 28.6682 12.3643 29.277 11.7765L30.5392 10.5578C30.6357 10.4647 30.6839 10.4181 30.7444 10.3937C30.805 10.3692 30.872 10.3692 31.0061 10.3692H31.6465C32.3704 10.3692 32.7324 10.3692 32.8161 10.5826C32.8998 10.7959 32.6343 11.042 32.1035 11.5342L30.1753 13.3222C30.0121 13.4736 29.9305 13.5492 29.9075 13.6506C29.8845 13.752 29.9254 13.8555 30.0074 14.0625L31.1388 16.9201C31.3039 17.337 31.3864 17.5454 31.2864 17.6925C31.1864 17.8397 30.9622 17.8397 30.5139 17.8397H29.7387C29.5132 17.8397 29.4004 17.8397 29.314 17.7798C29.2276 17.7199 29.1881 17.6143 29.1091 17.4031L28.5423 15.8879C28.3848 15.4667 28.306 15.2561 28.1327 15.2141C27.9594 15.1722 27.7931 15.3236 27.4604 15.6262L27.0394 16.0093C26.9665 16.0756 26.9301 16.1088 26.9048 16.1503C26.8796 16.1918 26.8671 16.2395 26.8419 16.3348L26.5766 17.3392C26.513 17.5798 26.4812 17.7001 26.3906 17.7699C26.2999 17.8397 26.1755 17.8397 25.9267 17.8397H25.241Z" fill="white"/>
<path d="M33.0054 17.8397C32.6027 17.8397 32.4014 17.8397 32.3005 17.7082C32.1996 17.5766 32.2518 17.3821 32.3563 16.9932L34.0016 10.867C34.0659 10.6277 34.098 10.508 34.1885 10.4386C34.279 10.3692 34.4029 10.3692 34.6508 10.3692H35.3292C35.7319 10.3692 35.9332 10.3692 36.0341 10.5008C36.135 10.6323 36.0828 10.8268 35.9784 11.2157L34.333 17.3419C34.2688 17.5813 34.2366 17.7009 34.1461 17.7703C34.0556 17.8397 33.9317 17.8397 33.6839 17.8397H33.0054Z" fill="white"/>
<path d="M36.4238 17.8397C36.0206 17.8397 35.819 17.8397 35.7181 17.708C35.6173 17.5762 35.6698 17.3816 35.7749 16.9924L37.429 10.8662C37.4935 10.6272 37.5258 10.5077 37.6162 10.4385C37.7066 10.3692 37.8304 10.3692 38.0779 10.3692H39.0565C39.2643 10.3692 39.3682 10.3692 39.4507 10.4217C39.5333 10.4743 39.5773 10.5683 39.6653 10.7565L40.6476 12.8561C40.9736 13.5528 41.1366 13.9012 41.3707 13.8808C41.6047 13.8603 41.7049 13.489 41.9054 12.7464L42.4129 10.8662C42.4774 10.6272 42.5097 10.5077 42.6001 10.4385C42.6905 10.3692 42.8143 10.3692 43.0618 10.3692H43.7196C44.1223 10.3692 44.3236 10.3692 44.4245 10.5008C44.5254 10.6323 44.4732 10.8268 44.3688 11.2157L42.7234 17.3419C42.6591 17.5813 42.627 17.7009 42.5365 17.7703C42.446 17.8397 42.3221 17.8397 42.0743 17.8397H41.2031C40.9953 17.8397 40.8914 17.8397 40.8089 17.7872C40.7263 17.7347 40.6823 17.6406 40.5943 17.4524L39.5402 15.1992C39.2131 14.5001 39.0496 14.1506 38.8153 14.1713C38.581 14.192 38.4813 14.5648 38.282 15.3104L37.7391 17.3412C37.675 17.5809 37.643 17.7007 37.5525 17.7702C37.4619 17.8397 37.3379 17.8397 37.0898 17.8397H36.4238Z" fill="white"/>
<path d="M49.017 10.2305C51.1515 10.2305 52.5815 11.6819 52.5815 13.5709C52.5815 14.7341 52.1013 15.8654 51.2795 16.6871C50.4791 17.4662 49.4119 17.9785 48.1419 17.9785C46.0075 17.9785 44.5774 16.5377 44.5774 14.6274C44.5774 13.4641 45.0577 12.3436 45.8794 11.5218C46.6798 10.7214 47.747 10.2305 49.017 10.2305ZM48.3233 16.1215C48.889 16.1215 49.3692 15.8867 49.7427 15.5132C50.2016 15.0543 50.4791 14.3819 50.4791 13.7416C50.4791 12.7918 49.9028 12.0874 48.8356 12.0874C48.27 12.0874 47.7897 12.3115 47.4162 12.6851C46.9573 13.1546 46.6798 13.827 46.6798 14.4673C46.6798 15.4171 47.2561 16.1215 48.3233 16.1215Z" fill="white"/>
</svg>
