<svg width="187" height="21" viewBox="0 0 187 21" fill="none" xmlns="http://www.w3.org/2000/svg">
<path d="M36.3333 19.921C35.2334 19.921 34.6834 19.921 34.3417 19.5793C34 19.2376 34 18.6876 34 17.5877V2.7239C34 1.62398 34 1.07401 34.3417 0.732311C34.6834 0.390608 35.2334 0.390608 36.3333 0.390608H37.0794C38.1793 0.390608 38.7293 0.390608 39.071 0.732311C39.4127 1.07401 39.4127 1.62398 39.4127 2.7239V17.5877C39.4127 18.6876 39.4127 19.2376 39.071 19.5793C38.7293 19.921 38.1793 19.921 37.0794 19.921H36.3333Z" fill="white"/>
<path d="M50.0924 19.921C48.9925 19.921 48.4425 19.921 48.1008 19.5793C47.7591 19.2376 47.7591 18.6876 47.7591 17.5877V7.467C47.7591 6.36707 47.7591 5.81711 47.4174 5.4754C47.0757 5.1337 46.5257 5.1337 45.4258 5.1337H44.2612C43.1613 5.1337 42.6113 5.1337 42.2696 4.792C41.9279 4.4503 41.9279 3.90033 41.9279 2.80041V2.7239C41.9279 1.62398 41.9279 1.07401 42.2696 0.732311C42.6113 0.390608 43.1613 0.390608 44.2612 0.390608H56.6976C57.7976 0.390608 58.3475 0.390608 58.6892 0.732311C59.0309 1.07401 59.0309 1.62398 59.0309 2.7239V2.80041C59.0309 3.90033 59.0309 4.4503 58.6892 4.792C58.3475 5.1337 57.7976 5.1337 56.6976 5.1337H55.5051C54.4052 5.1337 53.8552 5.1337 53.5135 5.4754C53.1718 5.81711 53.1718 6.36707 53.1718 7.46699V17.5877C53.1718 18.6876 53.1718 19.2376 52.8301 19.5793C52.4884 19.921 51.9385 19.921 50.8385 19.921H50.0924Z" fill="white"/>
<path d="M63.7401 19.921C62.6402 19.921 62.0903 19.921 61.7486 19.5793C61.4068 19.2376 61.4068 18.6876 61.4068 17.5877V2.7239C61.4068 1.62398 61.4068 1.07401 61.7486 0.732311C62.0903 0.390608 62.6402 0.390608 63.7401 0.390608H65.8236C66.4603 0.390608 66.7787 0.390608 67.0438 0.53865C67.3089 0.686692 67.4759 0.957728 67.81 1.4998L69.7994 4.7282C70.6894 6.17242 71.1344 6.89452 71.7859 6.89452C72.4373 6.89452 72.8823 6.17242 73.7723 4.7282L75.7617 1.4998C76.0958 0.957728 76.2628 0.686692 76.5279 0.53865C76.793 0.390608 77.1114 0.390608 77.7481 0.390608H79.8316C80.9315 0.390608 81.4815 0.390608 81.8232 0.732311C82.1649 1.07401 82.1649 1.62398 82.1649 2.7239V17.5877C82.1649 18.6876 82.1649 19.2376 81.8232 19.5793C81.4815 19.921 80.9315 19.921 79.8316 19.921H79.1133C78.0134 19.921 77.4635 19.921 77.1218 19.5793C76.7801 19.2376 76.7801 18.6876 76.7801 17.5877V16.5428C76.7801 13.3503 76.7801 11.754 75.9463 11.5058C75.1125 11.2575 74.2395 12.5939 72.4934 15.2667L71.8164 16.303C71.7973 16.3322 71.7649 16.3497 71.7301 16.3497V16.3497C71.6953 16.3497 71.6628 16.3321 71.6438 16.303L70.9855 15.2934C69.2482 12.6289 68.3796 11.2966 67.5491 11.5379C67.5445 11.5392 67.5399 11.5406 67.5354 11.542C66.708 11.7934 66.708 13.3838 66.708 16.5647V17.5877C66.708 18.6876 66.708 19.2376 66.3662 19.5793C66.0245 19.921 65.4746 19.921 64.3747 19.921H63.7401Z" fill="white"/>
<path d="M95.478 20.3116C89.4515 20.3116 84.9874 15.7917 84.9874 10.2116V10.1558C84.9874 4.54779 89.5073 0 95.5338 0C101.56 0 106.024 4.51989 106.024 10.1V10.1558C106.024 15.7638 101.505 20.3116 95.478 20.3116ZM95.5338 15.429C98.4913 15.429 100.472 13.0296 100.472 10.2116V10.1558C100.472 7.30995 98.4634 4.8826 95.478 4.8826C92.4927 4.8826 90.5117 7.28204 90.5117 10.1V10.1558C90.5117 12.9459 92.5485 15.429 95.5338 15.429Z" fill="white"/>
<path d="M116.275 19.921C114.875 19.921 114.175 19.921 113.825 19.4637C113.475 19.0064 113.657 18.3307 114.022 16.9795L118.036 2.11569C118.26 1.28618 118.371 0.871417 118.685 0.631013C118.999 0.390608 119.429 0.390608 120.288 0.390608H121.769C122.329 0.390608 122.608 0.390608 122.813 0.470606C123.218 0.628937 123.502 0.9996 123.548 1.43216C123.572 1.65071 123.499 1.92057 123.352 2.46027V2.46027C122.997 3.76833 122.82 4.42236 122.902 4.72702C123.067 5.33877 123.69 5.70713 124.305 5.55679C124.612 5.48191 125.099 5.01119 126.074 4.06974L129.209 1.04276C129.541 0.722077 129.707 0.561734 129.916 0.476857C129.918 0.475975 129.92 0.4751 129.922 0.47423C130.131 0.390608 130.362 0.390608 130.824 0.390608V0.390608C133.316 0.390608 134.562 0.390608 134.856 1.12104C134.859 1.1278 134.862 1.13459 134.864 1.1414C135.145 1.87723 134.231 2.72448 132.404 4.419L128.712 7.84266C128.145 8.3681 127.862 8.63082 127.782 8.98281C127.702 9.33479 127.844 9.69404 128.129 10.4126L130.63 16.7287C131.203 18.1757 131.489 18.8992 131.142 19.4101C130.795 19.921 130.016 19.921 128.46 19.921H127.681C126.898 19.921 126.507 19.921 126.207 19.713C125.907 19.505 125.77 19.1384 125.495 18.4052L124.452 15.6149C123.905 14.1528 123.631 13.4217 123.03 13.2762C122.428 13.1307 121.851 13.656 120.696 14.7065L120.35 15.0211C120.097 15.2513 119.971 15.3665 119.883 15.5106C119.796 15.6548 119.752 15.8202 119.665 16.151L119.128 18.1836C118.907 19.0187 118.797 19.4363 118.482 19.6787C118.167 19.921 117.736 19.921 116.872 19.921H116.275Z" fill="white"/>
<path d="M136.573 19.921C135.175 19.921 134.476 19.921 134.126 19.4643C133.775 19.0076 133.957 18.3326 134.319 16.9825L138.311 2.11869C138.534 1.28781 138.646 0.872363 138.96 0.631485C139.274 0.390608 139.704 0.390608 140.565 0.390608H141.145C142.543 0.390608 143.242 0.390608 143.593 0.847314C143.943 1.30402 143.762 1.97905 143.399 3.32911L139.407 18.1929C139.184 19.0238 139.072 19.4392 138.758 19.6801C138.444 19.921 138.014 19.921 137.154 19.921H136.573Z" fill="white"/>
<path d="M145.511 19.921C144.111 19.921 143.411 19.921 143.061 19.4637C142.711 19.0064 142.893 18.3307 143.258 16.9795L147.271 2.11569C147.495 1.28618 147.607 0.871417 147.921 0.631013C148.235 0.390608 148.665 0.390608 149.524 0.390608H151.275C151.996 0.390608 152.357 0.390608 152.643 0.572914C152.93 0.75522 153.082 1.08185 153.388 1.7351L155.133 5.46542C156.265 7.88405 156.831 9.09336 157.643 9.02251C158.456 8.95166 158.804 7.66266 159.499 5.08467L160.301 2.11585C160.525 1.28626 160.637 0.871468 160.951 0.631038C161.265 0.390608 161.694 0.390608 162.554 0.390608H163.081C164.479 0.390608 165.178 0.390608 165.528 0.847314C165.878 1.30402 165.697 1.97905 165.334 3.32911L161.342 18.1929C161.119 19.0238 161.007 19.4392 160.693 19.6801C160.379 19.921 159.949 19.921 159.089 19.921H157.619C156.898 19.921 156.538 19.921 156.251 19.7387C155.964 19.5564 155.812 19.2297 155.506 18.5764L153.576 14.4499C152.44 12.0232 151.873 10.8098 151.059 10.8818C150.246 10.9537 149.9 12.2478 149.208 14.836L148.311 18.1903C148.089 19.0224 147.978 19.4384 147.663 19.6797C147.349 19.921 146.918 19.921 146.057 19.921H145.511Z" fill="white"/>
<path d="M177.681 0.0279002C183.261 0.0279002 187 3.82238 187 8.76077C187 11.8019 185.744 14.7594 183.596 16.9077C181.504 18.9445 178.714 20.2837 175.393 20.2837C169.813 20.2837 166.075 16.5171 166.075 11.5229C166.075 8.48177 167.33 5.55221 169.478 3.40387C171.571 1.31133 174.361 0.0279002 177.681 0.0279002ZM175.868 15.429C177.346 15.429 178.602 14.8152 179.578 13.8387C180.778 12.639 181.504 10.8812 181.504 9.20718C181.504 6.72403 179.997 4.8826 177.207 4.8826C175.728 4.8826 174.473 5.46851 173.496 6.44503C172.296 7.67265 171.571 9.43039 171.571 11.1044C171.571 13.5876 173.078 15.429 175.868 15.429Z" fill="white"/>
<path fill-rule="evenodd" clip-rule="evenodd" d="M1.28437 0C0.67891 0 0.376182 0 0.188091 0.188091C0 0.376182 0 0.678909 0 1.28436V18.6921C0 19.2975 0 19.6003 0.188091 19.7883C0.376182 19.9764 0.678909 19.9764 1.28436 19.9764H6.64149C6.65339 19.9764 6.66527 19.9776 6.67696 19.9798V19.9798C6.74197 19.9923 6.80877 19.9697 6.8527 19.9201L8.8092 17.7139C9.27123 17.1929 9.50224 16.9324 9.79755 16.9374C10.0929 16.9423 10.315 17.2105 10.7592 17.7467L12.2407 19.535C12.4301 19.7637 12.5248 19.878 12.6546 19.939C12.7844 20 12.9328 20 13.2297 20H21.9146C23.15 20 23.7677 20 23.9376 19.6199C24.1075 19.2398 23.6955 18.7795 22.8715 17.859L16.506 10.748C16.1428 10.3423 15.9613 10.1394 15.9607 9.89485C15.9601 9.65026 16.1408 9.44657 16.502 9.03918L22.6233 2.13657C23.4386 1.21723 23.8462 0.757567 23.6759 0.378799C23.5055 3.06279e-05 22.8912 3.06279e-05 21.6624 3.06279e-05H12.6734C12.3842 3.06279e-05 12.2395 3.06279e-05 12.1123 0.0582824C11.985 0.116534 11.8905 0.225993 11.7014 0.44491L10.4866 1.85151C10.0418 2.36657 9.81937 2.62409 9.52891 2.62668C9.23845 2.62926 9.0115 2.37572 8.5576 1.86866L6.92144 0.0408749C6.89817 0.0148844 6.86494 3.06279e-05 6.83006 3.06279e-05H6.70743C6.70742 3.06279e-05 6.70742 2.37716e-05 6.70742 1.53139e-05V1.53139e-05C6.70742 6.85629e-06 6.70741 0 6.7074 0H1.28437Z" fill="white"/>
</svg>
